HIERARCHY
ROOT newVegas:Hips
{
	OFFSET 0.000000 96.479958 0.000000
	CHANNELS 6 Xposition Yposition Zposition Xrotation Yrotation Zrotation
	JOINT newVegas:Pelvis
	{
		OFFSET 0.000000 0.000000 0.000000
		CHANNELS 3 Xrotation Yrotation Zrotation
		JOINT newVegas:LeftUpLeg
		{
			OFFSET 18.735201 -5.666702 -4.541200
			CHANNELS 3 Xrotation Yrotation Zrotation
			JOINT newVegas:LeftLeg
			{
				OFFSET -0.021200 -31.938179 0.493100
				CHANNELS 3 Xrotation Yrotation Zrotation
				JOINT newVegas:LeftFoot
				{
					OFFSET 0.021200 -31.938179 -4.336299
					CHANNELS 3 Xrotation Yrotation Zrotation
					JOINT newVegas:LeftToeBase
					{
						OFFSET 0.943001 -26.722000 15.023500
						CHANNELS 3 Xrotation Yrotation Zrotation
						End Site
						{
							OFFSET 0.000000 30.670183 0.000000
						}
					}
				}
				JOINT newVegas:Left_PantLeg
				{
					OFFSET 0.663870 -9.044666 -1.108900
					CHANNELS 3 Xrotation Yrotation Zrotation
					End Site
					{
						OFFSET 1.415995 20.635357 0.000000
					}
				}
			}
		}
		JOINT newVegas:RightUpLeg
		{
			OFFSET -18.735201 -5.666702 -4.541200
			CHANNELS 3 Xrotation Yrotation Zrotation
			JOINT newVegas:RightLeg
			{
				OFFSET 0.018946 -31.938133 0.493100
				CHANNELS 3 Xrotation Yrotation Zrotation
				JOINT newVegas:RightFoot
				{
					OFFSET -0.018946 -31.938126 -4.336299
					CHANNELS 3 Xrotation Yrotation Zrotation
					JOINT newVegas:RightToeBase
					{
						OFFSET -0.943001 -26.722004 15.023500
						CHANNELS 3 Xrotation Yrotation Zrotation
						End Site
						{
							OFFSET 0.000000 30.670187 0.000000
						}
					}
				}
				JOINT newVegas:Right_PantLeg
				{
					OFFSET -0.661674 -9.044716 -1.108900
					CHANNELS 3 Xrotation Yrotation Zrotation
					End Site
					{
						OFFSET -1.415958 20.635269 0.000000
					}
				}
			}
		}
	}
	JOINT newVegas:Spine
	{
		OFFSET 0.000000 10.199997 -0.299500
		CHANNELS 3 Xrotation Yrotation Zrotation
		JOINT newVegas:Spine1
		{
			OFFSET 0.000000 11.900002 -1.516600
			CHANNELS 3 Xrotation Yrotation Zrotation
			JOINT newVegas:Spine2
			{
				OFFSET 0.000000 13.600006 -2.842500
				CHANNELS 3 Xrotation Yrotation Zrotation
				JOINT newVegas:Neck
				{
					OFFSET 0.000000 9.624100 -2.890100
					CHANNELS 3 Xrotation Yrotation Zrotation
					JOINT newVegas:Head
					{
						OFFSET 0.000000 14.068802 -1.351900
						CHANNELS 3 Xrotation Yrotation Zrotation
						JOINT newVegas:Hair_Back
						{
							OFFSET 0.000000 3.231903 -17.524799
							CHANNELS 3 Xrotation Yrotation Zrotation
							End Site
							{
								OFFSET 0.000000 19.849884 0.000000
							}
						}
						JOINT newVegas:Hair_Front
						{
							OFFSET 0.000000 31.260406 4.573800
							CHANNELS 3 Xrotation Yrotation Zrotation
							JOINT newVegas:Hair_Front1
							{
								OFFSET 0.000000 2.284103 11.993300
								CHANNELS 3 Xrotation Yrotation Zrotation
								JOINT newVegas:Hair_Front2
								{
									OFFSET 0.000000 2.284103 11.993300
									CHANNELS 3 Xrotation Yrotation Zrotation
									End Site
									{
										OFFSET 0.000000 12.208862 0.000000
									}
								}
							}
						}
						JOINT newVegas:Jowel
						{
							OFFSET 0.000000 -7.458206 6.864100
							CHANNELS 3 Xrotation Yrotation Zrotation
							End Site
							{
								OFFSET 0.000000 19.849884 0.000000
							}
						}
					}
				}
				JOINT newVegas:LeftShoulder
				{
					OFFSET 15.263000 10.923401 -0.547700
					CHANNELS 3 Xrotation Yrotation Zrotation
					JOINT newVegas:LeftArm
					{
						OFFSET 25.438599 -2.830597 -13.032500
						CHANNELS 3 Xrotation Yrotation Zrotation
						JOINT newVegas:LeftForeArm
						{
							OFFSET 29.960503 0.000000 0.000000
							CHANNELS 3 Xrotation Yrotation Zrotation
							JOINT newVegas:LeftHand
							{
								OFFSET 27.849251 0.000000 0.000000
								CHANNELS 3 Xrotation Yrotation Zrotation
								JOINT newVegas:LeftHandThumb1
								{
									OFFSET 4.487587 -3.305161 6.305391
									CHANNELS 3 Xrotation Yrotation Zrotation
									JOINT newVegas:LeftHandThumb2
									{
										OFFSET 5.480453 -3.164139 3.164143
										CHANNELS 3 Xrotation Yrotation Zrotation
										JOINT newVegas:LeftHandThumb3
										{
											OFFSET 5.159721 -2.978973 2.978967
											CHANNELS 3 Xrotation Yrotation Zrotation
											End Site
											{
												OFFSET 2.494507 5.926697 1.738678
											}
										}
									}
								}
								JOINT newVegas:LeftHandIndex1
								{
									OFFSET 18.578728 -0.527832 5.208049
									CHANNELS 3 Xrotation Yrotation Zrotation
									JOINT newVegas:LeftHandIndex2
									{
										OFFSET 3.192009 0.000000 0.000000
										CHANNELS 3 Xrotation Yrotation Zrotation
										JOINT newVegas:LeftHandIndex3
										{
											OFFSET 3.835129 0.000000 0.000000
											CHANNELS 3 Xrotation Yrotation Zrotation
											End Site
											{
												OFFSET -0.034599 3.816971 0.371180
											}
										}
									}
								}
								JOINT newVegas:LeftHandMiddle1
								{
									OFFSET 18.476105 0.000000 0.000000
									CHANNELS 3 Xrotation Yrotation Zrotation
									JOINT newVegas:LeftHandMiddle2
									{
										OFFSET 3.324875 0.000000 0.000000
										CHANNELS 3 Xrotation Yrotation Zrotation
										JOINT newVegas:LeftHandMiddle3
										{
											OFFSET 4.596550 0.000000 0.000000
											CHANNELS 3 Xrotation Yrotation Zrotation
											End Site
											{
												OFFSET 0.057701 4.578827 0.399218
											}
										}
									}
								}
								JOINT newVegas:LeftHandRing1
								{
									OFFSET 17.732719 0.121887 -4.201567
									CHANNELS 3 Xrotation Yrotation Zrotation
									JOINT newVegas:LeftHandRing2
									{
										OFFSET 2.733170 0.000000 0.000000
										CHANNELS 3 Xrotation Yrotation Zrotation
										JOINT newVegas:LeftHandRing3
										{
											OFFSET 3.178268 0.000000 0.000000
											CHANNELS 3 Xrotation Yrotation Zrotation
											End Site
											{
												OFFSET 0.119102 3.170624 0.185394
											}
										}
									}
								}
								JOINT newVegas:LeftHandPinky1
								{
									OFFSET 15.989624 -0.606689 -7.535461
									CHANNELS 3 Xrotation Yrotation Zrotation
									JOINT newVegas:LeftHandPinky2
									{
										OFFSET 2.538986 0.000000 0.000000
										CHANNELS 3 Xrotation Yrotation Zrotation
										JOINT newVegas:LeftHandPinky3
										{
											OFFSET 2.593102 0.000000 0.000000
											CHANNELS 3 Xrotation Yrotation Zrotation
											End Site
											{
												OFFSET -0.150902 2.584198 0.152708
											}
										}
									}
								}
							}
							JOINT newVegas:Left_Sleeve
							{
								OFFSET 0.267448 -0.649796 0.577675
								CHANNELS 3 Xrotation Yrotation Zrotation
								End Site
								{
									OFFSET 0.000000 15.991241 0.000000
								}
							}
							JOINT newVegas:Left_CapeC
							{
								OFFSET 15.715958 -8.608795 -6.935905
								CHANNELS 3 Xrotation Yrotation Zrotation
								JOINT newVegas:Left_CapeC1
								{
									OFFSET 0.000000 -8.688499 0.000000
									CHANNELS 3 Xrotation Yrotation Zrotation
									End Site
									{
										OFFSET 0.000000 8.688499 0.000000
									}
								}
							}
						}
						JOINT newVegas:Left_CapeB
						{
							OFFSET 26.118385 -8.608795 -7.079235
							CHANNELS 3 Xrotation Yrotation Zrotation
							JOINT newVegas:Left_CapeB1
							{
								OFFSET 0.000000 -8.688499 0.000000
								CHANNELS 3 Xrotation Yrotation Zrotation
								End Site
								{
									OFFSET 0.000000 8.688499 0.000000
								}
							}
						}
						JOINT newVegas:Left_CapeA
						{
							OFFSET 5.115639 -8.608795 -10.395809
							CHANNELS 3 Xrotation Yrotation Zrotation
							JOINT newVegas:Left_CapeA1
							{
								OFFSET 0.000000 -8.688499 0.000000
								CHANNELS 3 Xrotation Yrotation Zrotation
								End Site
								{
									OFFSET 0.000000 8.688499 0.000000
								}
							}
						}
					}
				}
				JOINT newVegas:RightShoulder
				{
					OFFSET -15.263000 10.923401 -0.547700
					CHANNELS 3 Xrotation Yrotation Zrotation
					JOINT newVegas:RightArm
					{
						OFFSET -25.438599 -2.830597 -13.032500
						CHANNELS 3 Xrotation Yrotation Zrotation
						JOINT newVegas:RightForeArm
						{
							OFFSET -29.960503 0.000000 0.000000
							CHANNELS 3 Xrotation Yrotation Zrotation
							JOINT newVegas:RightHand
							{
								OFFSET -27.849251 0.000000 0.000000
								CHANNELS 3 Xrotation Yrotation Zrotation
								JOINT newVegas:RightHandThumb1
								{
									OFFSET -4.487587 -3.305161 6.305391
									CHANNELS 3 Xrotation Yrotation Zrotation
									JOINT newVegas:RightHandThumb2
									{
										OFFSET -5.480453 -3.164139 3.164143
										CHANNELS 3 Xrotation Yrotation Zrotation
										JOINT newVegas:RightHandThumb3
										{
											OFFSET -5.159721 -2.978973 2.978967
											CHANNELS 3 Xrotation Yrotation Zrotation
											End Site
											{
												OFFSET -2.494507 5.926697 1.738678
											}
										}
									}
								}
								JOINT newVegas:RightHandIndex1
								{
									OFFSET -18.578728 -0.527832 5.208049
									CHANNELS 3 Xrotation Yrotation Zrotation
									JOINT newVegas:RightHandIndex2
									{
										OFFSET -3.192009 0.000000 0.000000
										CHANNELS 3 Xrotation Yrotation Zrotation
										JOINT newVegas:RightHandIndex3
										{
											OFFSET -3.835129 0.000000 0.000000
											CHANNELS 3 Xrotation Yrotation Zrotation
											End Site
											{
												OFFSET 0.034599 3.816971 0.371180
											}
										}
									}
								}
								JOINT newVegas:RightHandMiddle1
								{
									OFFSET -18.476105 0.000000 0.000000
									CHANNELS 3 Xrotation Yrotation Zrotation
									JOINT newVegas:RightHandMiddle2
									{
										OFFSET -3.324875 0.000000 0.000000
										CHANNELS 3 Xrotation Yrotation Zrotation
										JOINT newVegas:RightHandMiddle3
										{
											OFFSET -4.596550 0.000000 0.000000
											CHANNELS 3 Xrotation Yrotation Zrotation
											End Site
											{
												OFFSET -0.057701 4.578827 0.399218
											}
										}
									}
								}
								JOINT newVegas:RightHandRing1
								{
									OFFSET -17.732719 0.121887 -4.201567
									CHANNELS 3 Xrotation Yrotation Zrotation
									JOINT newVegas:RightHandRing2
									{
										OFFSET -2.733170 0.000000 0.000000
										CHANNELS 3 Xrotation Yrotation Zrotation
										JOINT newVegas:RightHandRing3
										{
											OFFSET -3.178268 0.000000 0.000000
											CHANNELS 3 Xrotation Yrotation Zrotation
											End Site
											{
												OFFSET -0.119102 3.170624 0.185394
											}
										}
									}
								}
								JOINT newVegas:RightHandPinky1
								{
									OFFSET -15.989624 -0.606689 -7.535461
									CHANNELS 3 Xrotation Yrotation Zrotation
									JOINT newVegas:RightHandPinky2
									{
										OFFSET -2.538986 0.000000 0.000000
										CHANNELS 3 Xrotation Yrotation Zrotation
										JOINT newVegas:RightHandPinky3
										{
											OFFSET -2.593102 0.000000 0.000000
											CHANNELS 3 Xrotation Yrotation Zrotation
											End Site
											{
												OFFSET 0.150902 2.584198 0.152708
											}
										}
									}
								}
							}
							JOINT newVegas:Right_CapeC
							{
								OFFSET -15.715958 -8.608795 -6.935905
								CHANNELS 3 Xrotation Yrotation Zrotation
								JOINT newVegas:Right_CapeC1
								{
									OFFSET 0.000000 -8.688499 0.000000
									CHANNELS 3 Xrotation Yrotation Zrotation
									End Site
									{
										OFFSET 0.000000 8.688499 0.000000
									}
								}
							}
							JOINT newVegas:Right_Sleeve
							{
								OFFSET -0.267448 -0.649994 0.577675
								CHANNELS 3 Xrotation Yrotation Zrotation
								End Site
								{
									OFFSET 0.000000 15.991302 0.000000
								}
							}
						}
						JOINT newVegas:Right_CapeA
						{
							OFFSET -5.115540 -8.608795 -10.395824
							CHANNELS 3 Xrotation Yrotation Zrotation
							JOINT newVegas:Right_CapeA1
							{
								OFFSET 0.000000 -8.688499 0.000000
								CHANNELS 3 Xrotation Yrotation Zrotation
								End Site
								{
									OFFSET 0.000000 8.688499 0.000000
								}
							}
						}
						JOINT newVegas:Right_CapeB
						{
							OFFSET -26.118187 -8.608795 -7.079266
							CHANNELS 3 Xrotation Yrotation Zrotation
							JOINT newVegas:Right_CapeB1
							{
								OFFSET 0.000000 -8.688499 0.000000
								CHANNELS 3 Xrotation Yrotation Zrotation
								End Site
								{
									OFFSET 0.000000 8.688499 0.000000
								}
							}
						}
					}
				}
				JOINT newVegas:Left_Collar
				{
					OFFSET 18.625099 8.655502 8.828100
					CHANNELS 3 Xrotation Yrotation Zrotation
					JOINT newVegas:Left_Collar1
					{
						OFFSET 14.783401 10.540405 -1.259500
						CHANNELS 3 Xrotation Yrotation Zrotation
						End Site
						{
							OFFSET 0.000000 18.199875 0.000000
						}
					}
				}
				JOINT newVegas:Collar_Back
				{
					OFFSET 0.000000 15.630707 -20.132601
					CHANNELS 3 Xrotation Yrotation Zrotation
					End Site
					{
						OFFSET 0.000000 22.523010 0.000000
					}
				}
				JOINT newVegas:Left_Peck
				{
					OFFSET 17.239599 -5.132599 25.482599
					CHANNELS 3 Xrotation Yrotation Zrotation
					End Site
					{
						OFFSET 0.000000 22.523010 0.000000
					}
				}
				JOINT newVegas:Right_Peck
				{
					OFFSET -17.239599 -5.132202 25.482599
					CHANNELS 3 Xrotation Yrotation Zrotation
					End Site
					{
						OFFSET 0.000000 22.523010 0.000000
					}
				}
				JOINT newVegas:Right_Collar
				{
					OFFSET -18.625099 8.655792 8.828100
					CHANNELS 3 Xrotation Yrotation Zrotation
					JOINT newVegas:Right_Collar1
					{
						OFFSET -14.783401 10.539993 -1.259500
						CHANNELS 3 Xrotation Yrotation Zrotation
						End Site
						{
							OFFSET 0.000000 18.199631 0.000000
						}
					}
				}
			}
		}
		JOINT newVegas:Belly
		{
			OFFSET 0.000000 -6.540398 9.014299
			CHANNELS 3 Xrotation Yrotation Zrotation
			End Site
			{
				OFFSET 0.000000 11.566666 0.000000
			}
		}
	}
	JOINT newVegas:ElvisFacialAnim_Joint
	{
		OFFSET 1.000000 -95.330101 -8.825800
		CHANNELS 3 Xrotation Yrotation Zrotation
		End Site
		{
			OFFSET 0.000000 35.315800 0.000000
		}
	}
}
MOTION
Frames: 4
Frame Time: 0.033333
-9.850012 218.267181 50.959984 57.251465 -3.293826 -4.243559 0.000002 0.000000 -0.000000 -111.610461 -21.564594 37.219176 126.463357 -2.820629 -1.415981 -27.251454 -19.122190 -23.298614 0.000004 0.000001 -0.000001 -0.000001 -0.000001 0.000003 -129.620461 -11.449965 -13.794096 118.998752 6.749704 6.942663 -28.283827 -1.416404 -13.626283 0.000002 -0.000000 0.000001 0.000002 0.000001 -0.000002 7.815298 0.384779 0.437538 15.627447 0.478131 1.052556 15.627439 0.478131 1.052557 -2.417246 -0.154247 -1.291895 -2.417280 -0.154245 -1.291896 -0.000000 0.000000 0.000000 -2.417211 -0.154244 -1.291895 -2.417334 -0.154251 -1.291895 0.000000 -0.000001 0.000000 -0.000000 0.000000 0.000000 -0.949991 -8.811122 -3.027166 -12.203969 -14.119818 -28.120529 146.365462 -65.730298 148.308200 67.893644 20.808702 11.512589 10.720994 -13.724607 10.793643 4.519632 18.068953 1.970188 -0.000001 -0.000000 -0.000003 6.567415 -11.021695 4.669789 -0.684268 0.017815 -24.512895 -0.000002 -0.000002 0.000002 0.962955 -2.537186 -3.323457 -1.856376 -1.939524 -29.406037 0.000005 -0.000002 -0.000001 0.021325 9.980649 -17.469694 0.140364 -3.163416 -35.083434 0.000003 -0.000001 -0.000000 -4.310784 30.816144 -23.593055 0.327157 -6.383500 -40.951263 -0.000000 -0.000003 -0.000001 -0.000000 -0.000002 -0.000003 -0.000000 -0.000002 -0.000003 -0.000000 -0.000002 -0.000002 -0.000001 -0.000003 0.000001 -0.000001 -0.000003 0.000000 -0.000001 -0.000003 0.000001 -0.000001 -0.000002 0.000000 14.766041 20.971331 -8.022417 -63.505999 25.343613 38.853500 -166.073181 123.114474 168.588453 41.177838 -20.891481 -62.066059 -35.300351 17.943295 -7.836892 -0.496522 -0.232136 -0.871909 0.000001 -0.000003 -0.000001 -0.981864 8.898826 -3.683500 0.403808 -1.788329 9.630764 -0.000001 -0.000001 -0.000001 -0.758620 -1.588225 -0.311503 -0.609342 0.446962 14.629792 0.000001 0.000000 0.000001 1.380088 -13.994528 4.384929 0.033308 2.175120 16.126939 0.000000 0.000001 -0.000001 5.707765 -32.826589 11.217308 -0.641008 6.363925 18.229266 -0.000000 0.000003 0.000001 0.000001 -0.000001 -0.000001 0.000002 -0.000000 0.000001 0.000001 -0.000001 -0.000001 -0.000004 -0.000001 -0.000001 -0.000004 0.000000 -0.000001 -0.000004 -0.000001 -0.000001 -0.000005 -0.000000 -0.000001 -0.000000 -0.000000 -0.000000 -0.000000 -0.000000 -0.000000 -0.000000 -0.000000 -0.000000 -0.000000 -0.000000 -0.000000 -0.000000 -0.000000 -0.000000 -0.000000 -0.000000 -0.000000 -0.000000 -0.000000 -0.000000 -0.000002 0.000000 0.000000 0.000002 0.000000 -0.000000 
-10.113329 216.756012 53.523579 52.829116 -1.041030 -3.925668 0.000001 0.000000 0.000000 -108.053033 -23.452385 36.781286 125.647614 -2.225339 -1.859173 -28.390902 -18.964896 -25.726693 0.000002 0.000002 -0.000001 0.000001 0.000003 0.000003 -128.621232 -8.427606 -11.134241 123.457582 8.786140 4.054759 -25.835602 -3.633066 -10.824194 0.000002 -0.000000 0.000000 -0.000002 0.000001 -0.000001 7.911017 0.510573 0.396010 15.819623 0.544590 0.841161 15.819613 0.544589 0.841161 -2.349464 -0.259608 -1.063487 -2.349459 -0.259607 -1.063487 -0.000000 0.000000 -0.000000 -2.349400 -0.259606 -1.063487 -2.349429 -0.259604 -1.063486 0.000000 0.000000 -0.000000 -0.000000 0.000000 -0.000000 -1.626659 -5.881733 -4.262392 -13.217851 -24.365858 -29.666066 141.079921 -72.187969 140.350497 67.803247 18.923903 13.243478 11.130239 -13.967139 10.071012 4.627979 18.922588 1.912903 0.000002 0.000000 -0.000003 6.406958 -10.680251 4.522951 -0.750156 -0.050804 -25.357516 0.000000 -0.000002 0.000003 1.020916 -2.336119 -3.493566 -1.961444 -2.013252 -30.602673 0.000005 -0.000001 0.000002 0.024286 9.975991 -17.960413 0.106239 -3.244664 -36.344437 -0.000001 -0.000001 -0.000000 -4.329332 30.745086 -24.305404 0.343638 -6.453891 -42.226500 -0.000001 0.000000 -0.000001 0.000001 -0.000002 -0.000000 0.000001 -0.000002 -0.000000 0.000001 -0.000002 0.000000 0.000001 0.000000 0.000001 0.000001 -0.000001 -0.000000 0.000001 0.000000 0.000001 0.000001 0.000000 -0.000000 14.084537 22.681067 -4.406147 -57.194256 25.774364 34.884112 -169.909644 128.821848 172.141995 39.209514 -19.033745 -67.488519 -35.561499 17.507488 -6.565223 -0.721291 -0.302977 -0.794118 0.000001 -0.000002 -0.000001 -1.120545 9.126214 -2.305514 0.367143 -1.708999 10.507321 -0.000000 0.000000 -0.000001 -0.757762 -1.547093 0.768384 -0.672395 0.527308 15.769597 0.000000 -0.000000 -0.000001 1.516783 -13.943971 5.278532 0.028004 2.278551 17.238952 -0.000000 0.000002 0.000001 6.049543 -32.754480 12.313780 -0.633640 6.449842 19.241912 0.000000 0.000002 -0.000000 0.000000 0.000002 0.000002 0.000002 -0.000000 -0.000002 0.000000 0.000001 0.000002 -0.000001 0.000000 -0.000000 -0.000001 0.000001 -0.000000 -0.000001 0.000000 -0.000000 -0.000001 0.000001 0.000000 -0.000000 -0.000000 0.000000 -0.000000 -0.000000 0.000000 -0.000000 -0.000000 0.000000 -0.000000 -0.000000 0.000000 -0.000000 -0.000000 0.000000 -0.000000 -0.000000 0.000000 -0.000000 -0.000000 0.000000 -0.000002 0.000000 -0.000000 0.000001 0.000000 0.000000 
-10.259996 214.525574 55.470764 48.821663 1.314198 -2.629434 0.000000 -0.000000 0.000000 -106.092584 -23.948086 37.065620 125.659088 -2.360188 -1.991634 -28.820089 -19.106163 -26.625291 0.000001 0.000002 -0.000000 0.000001 0.000001 0.000000 -132.917080 -6.676118 -11.447154 130.159773 4.128218 2.541632 -18.639892 -3.067558 -9.597447 0.000001 -0.000000 -0.000000 -0.000000 0.000000 -0.000002 7.777828 0.573976 0.009413 15.554972 0.582560 0.078600 15.554974 0.582560 0.078599 -2.280168 -0.366398 -0.831936 -2.280160 -0.366398 -0.831937 0.000000 -0.000000 0.000001 -2.280177 -0.366399 -0.831938 -2.280167 -0.366398 -0.831936 -0.000001 0.000000 -0.000000 0.000000 -0.000000 0.000001 -1.571492 -3.817878 -5.968291 -15.207756 -31.689148 -31.906515 134.434966 -80.043554 131.673179 64.952838 13.604629 12.967480 11.340585 -14.048315 9.370407 4.713372 19.496480 1.893525 0.000002 0.000001 -0.000003 6.197838 -10.306850 4.414209 -0.828062 -0.113922 -26.213991 -0.000000 0.000001 0.000000 1.037224 -2.162298 -3.653225 -2.049594 -2.061755 -31.477429 0.000005 0.000001 -0.000000 0.039869 9.952232 -18.311879 0.084819 -3.298592 -37.180780 0.000000 -0.000001 0.000001 -4.169623 30.730445 -24.724559 0.365035 -6.511918 -43.102722 -0.000001 -0.000002 -0.000001 0.000002 -0.000004 -0.000001 0.000002 -0.000004 -0.000001 0.000001 -0.000004 -0.000001 -0.000001 -0.000001 -0.000000 -0.000001 -0.000002 -0.000001 -0.000001 -0.000001 -0.000000 -0.000001 -0.000001 -0.000001 11.936250 24.749511 3.370853 -49.727179 26.094388 29.427505 -172.664204 131.027590 174.238768 39.942724 -17.370310 -68.197410 -35.271633 16.958361 -5.856491 -0.893453 -0.350743 -0.757449 0.000003 -0.000001 -0.000000 -1.305824 9.183877 -1.469248 0.310774 -1.637319 11.307304 0.000000 -0.000000 -0.000000 -0.811135 -1.489870 1.577752 -0.735009 0.578775 16.583530 0.000000 -0.000000 0.000002 1.632381 -13.857935 6.094385 0.033491 2.353969 18.012713 0.000001 0.000001 0.000000 6.358924 -32.603324 13.228455 -0.608707 6.526016 20.047341 -0.000001 0.000002 -0.000002 0.000003 -0.000001 0.000000 0.000004 -0.000000 -0.000001 0.000003 -0.000001 0.000002 -0.000001 0.000001 0.000000 -0.000001 0.000002 -0.000000 -0.000001 0.000001 0.000000 -0.000001 0.000002 0.000000 -0.000000 -0.000000 0.000000 -0.000000 -0.000000 0.000000 -0.000000 -0.000000 0.000000 -0.000000 -0.000000 0.000000 -0.000000 -0.000000 0.000000 -0.000000 -0.000000 0.000000 -0.000000 -0.000000 0.000000 -0.000003 -0.000000 -0.000000 0.000000 -0.000000 0.000000 
-10.356936 212.051987 56.848518 44.976813 3.845950 -0.664924 0.000001 0.000000 0.000000 -105.372839 -23.589354 37.240913 126.393935 -1.318837 -1.513864 -28.411809 -20.900807 -27.839774 -0.000001 0.000001 0.000001 -0.000000 0.000000 -0.000004 -138.477755 -4.097086 -12.452391 136.255990 -0.167250 1.462199 -10.911794 -1.867085 -9.649140 -0.000001 -0.000000 0.000001 -0.000000 0.000000 -0.000000 7.560007 0.519787 -0.582202 15.121035 0.361372 -1.063151 15.121021 0.361370 -1.063150 -2.217138 -0.470994 -0.611977 -2.217133 -0.470995 -0.611976 -0.000001 -0.000000 0.000000 -2.217138 -0.470997 -0.611973 -2.217064 -0.470988 -0.611975 -0.000002 0.000000 0.000001 -0.000001 -0.000000 0.000000 -1.387293 -2.060924 -7.511799 -17.696358 -37.329610 -33.750837 87.059408 -87.204310 83.518180 61.070559 7.320044 10.962401 11.504326 -14.110733 8.796677 4.783337 19.956433 1.877713 -0.000000 -0.000002 0.000000 6.025890 -9.998648 4.330812 -0.891741 -0.163450 -26.916686 0.000001 -0.000001 -0.000002 1.049631 -2.020922 -3.783651 -2.121063 -2.100539 -32.182451 0.000001 0.000001 -0.000002 0.052038 9.932412 -18.594591 0.065055 -3.341486 -37.850583 -0.000000 -0.000001 0.000001 -4.031263 30.721573 -25.057341 0.380681 -6.560626 -43.806211 -0.000001 -0.000003 -0.000000 -0.000001 0.000000 0.000000 -0.000001 0.000000 0.000000 -0.000002 0.000000 0.000001 -0.000001 -0.000003 0.000000 -0.000002 -0.000004 -0.000001 -0.000001 -0.000003 0.000000 -0.000003 -0.000004 -0.000000 9.183597 26.569059 11.997133 -43.719535 25.300337 24.723622 -176.075542 132.904594 176.703605 42.722714 -15.384378 -68.136062 -35.014401 16.502813 -5.293284 -1.034081 -0.395557 -0.729667 0.000001 0.000003 -0.000000 -1.467571 9.219098 -0.805929 0.262434 -1.580295 11.957832 -0.000000 -0.000000 -0.000001 -0.861148 -1.440793 2.230182 -0.787461 0.618019 17.236858 -0.000000 -0.000001 -0.000000 1.726382 -13.790465 6.763191 0.038241 2.415250 18.631583 -0.000000 0.000002 0.000001 6.613281 -32.472734 13.973902 -0.587396 6.588812 20.697642 0.000002 -0.000000 -0.000000 0.000003 0.000000 -0.000000 0.000001 -0.000001 -0.000001 0.000003 -0.000000 0.000002 -0.000002 0.000001 -0.000000 -0.000002 0.000002 -0.000000 -0.000002 0.000001 -0.000000 -0.000002 0.000002 0.000001 0.000000 0.000000 -0.000000 0.000000 0.000000 -0.000000 0.000000 0.000000 -0.000000 0.000000 0.000000 -0.000000 0.000000 0.000000 -0.000000 0.000000 0.000000 -0.000000 0.000000 0.000000 -0.000000 -0.000001 0.000000 -0.000000 0.000001 0.000000 0.000000 
